<svg width="215" height="48" viewBox="0 0 215 48" fill="none" xmlns="http://www.w3.org/2000/svg">
<path d="M48.1497 23.4187C47.8787 22.4133 47.369 21.4882 46.6639 20.7222C46.0179 20.0578 45.1414 19.6673 44.2157 19.6313C43.2899 19.5953 42.3858 19.9167 41.6902 20.5289C40.8682 21.2748 40.1788 22.1551 39.6514 23.132C39.0285 24.2319 38.4055 25.4652 37.8025 26.8184C37.3795 27.7283 36.9664 28.6149 36.5633 29.4849C36.1933 30.2929 35.7646 31.0727 35.2807 31.818C34.8856 32.4367 34.3915 32.9862 33.8182 33.4445C33.3226 33.8326 32.7048 34.0312 32.0759 34.0045C31.2405 33.9944 30.442 33.6584 29.8506 33.0679C29.2188 32.4058 28.761 31.5973 28.5181 30.7148C28.2188 29.6873 28.0916 28.6174 28.1416 27.5483C28.1416 27.5083 28.1416 27.4684 28.1416 27.4284C28.1416 27.2917 28.1416 27.155 28.1683 27.0184C28.2236 26.3118 28.335 25.6108 28.5014 24.9219C28.6107 24.4696 28.7476 24.0243 28.9112 23.5887L28.9311 23.6087C29.856 24.4231 30.9025 25.0877 32.0326 25.5785C32.9922 26.0032 34.0407 26.1874 35.0875 26.1151C36.0097 26.0244 36.8633 25.5875 37.4765 24.8924C38.0897 24.1973 38.4169 23.2956 38.3922 22.3688C38.344 21.2743 38.119 20.1949 37.7259 19.1724C37.2557 17.8922 36.7072 16.6422 36.0835 15.4293C35.6238 14.5161 35.1719 13.6273 34.7277 12.7629C34.3262 11.9638 33.9703 11.1425 33.6617 10.3031C33.4019 9.62147 33.2644 8.89936 33.2552 8.16994C33.251 7.54467 33.4789 6.94009 33.8949 6.47341C34.4303 5.83148 35.1955 5.42471 36.0269 5.34017C36.9454 5.26508 37.8681 5.4197 38.712 5.79013C39.695 6.20546 40.6049 6.77601 41.4071 7.47999C42.073 8.05893 42.678 8.70446 43.2127 9.4065C43.7415 10.1005 44.1886 10.8532 44.5452 11.6497C44.8666 12.3394 45.0489 13.0858 45.0815 13.8461C45.1043 14.4993 44.878 15.1368 44.4486 15.6293L44.332 15.7626L45.5646 15.596L45.5812 15.5593C45.8431 14.9593 45.905 14.2908 45.7578 13.6528C45.5966 12.8788 45.3215 12.133 44.9416 11.4397C44.5185 10.6508 44.0162 9.90701 43.4425 9.21985C42.8722 8.52332 42.2449 7.87557 41.567 7.28334C40.6474 6.46423 39.604 5.79601 38.4755 5.30351C37.5205 4.88229 36.4792 4.69381 35.4373 4.75355C34.9676 4.79252 34.5102 4.92422 34.0917 5.14104C33.6731 5.35786 33.3016 5.65551 32.9987 6.01678C32.408 6.70067 32.1058 7.58739 32.1559 8.48991C32.2223 9.59529 32.4746 10.6815 32.9021 11.703C33.4088 12.9817 33.9792 14.2343 34.6111 15.456L35.9137 18.0958C36.3075 18.892 36.6416 19.7164 36.9131 20.5623C37.1469 21.2578 37.2596 21.9884 37.2462 22.7221C37.2327 23.3498 36.9966 23.9523 36.5799 24.4219C36.0445 25.0639 35.2792 25.4706 34.4479 25.5552C33.5366 25.6274 32.6216 25.4752 31.7828 25.1119C30.7922 24.6986 29.8761 24.1255 29.0711 23.4153C29.0411 23.3854 29.0111 23.3654 28.9844 23.3354C28.8778 23.2454 28.7779 23.1554 28.6746 23.0554C28.1609 22.5668 27.6864 22.0386 27.2555 21.4755C26.9685 21.1045 26.7048 20.716 26.4659 20.3123H26.4926C27.7105 20.11 28.8889 19.7163 29.9838 19.1457C30.9146 18.6704 31.7151 17.9747 32.3158 17.1192C32.5797 16.7335 32.7645 16.2991 32.8594 15.8414C32.9543 15.3837 32.9575 14.9117 32.8688 14.4528C32.7079 13.5509 32.2101 12.7442 31.4763 12.1963C30.5977 11.5398 29.6175 11.032 28.5747 10.6931C27.2825 10.2477 25.9627 9.88694 24.6237 9.61315L21.7054 8.96987C20.8277 8.78234 19.9613 8.54531 19.1103 8.25993C18.4152 8.03111 17.7649 7.6838 17.1881 7.23335C16.701 6.84223 16.3739 6.28613 16.2687 5.67014C16.1051 4.85152 16.2703 4.0014 16.7284 3.30367C17.2488 2.54518 17.9494 1.92787 18.7672 1.50715C19.7107 1.00561 20.7286 0.658997 21.7821 0.48057C22.6531 0.330527 23.5372 0.270217 24.4205 0.300586C25.2967 0.322985 26.1674 0.446002 27.0156 0.667222C27.7594 0.84764 28.4588 1.17765 29.0711 1.63714C29.6004 2.02217 29.9589 2.59847 30.0705 3.24368L30.1038 3.42033L30.7501 2.36042L30.7334 2.32709C30.4278 1.74788 29.9459 1.28095 29.3576 0.993861C28.6516 0.635128 27.8976 0.380296 27.1189 0.237257C26.2404 0.0714276 25.3478 -0.0078336 24.4538 0.000609762C23.5528 0.00550688 22.6537 0.0835345 21.7654 0.233924C20.5486 0.436654 19.3715 0.83036 18.2775 1.40049C17.3499 1.86861 16.5497 2.55484 15.9455 3.40033C15.4193 4.16358 15.21 5.10145 15.3617 6.01614C15.5133 6.93083 16.0141 7.75085 16.7584 8.30326C17.6635 8.94823 18.6702 9.43716 19.7366 9.74981C20.9425 10.1331 22.2884 10.4797 23.7342 10.7864L26.6092 11.453C27.4806 11.6417 28.336 11.898 29.1677 12.2196C29.8579 12.473 30.5009 12.8403 31.0699 13.3062C31.5505 13.7084 31.8728 14.2683 31.9793 14.8861C32.1454 15.7047 31.9801 16.5558 31.5196 17.2525C31.0028 18.0092 30.307 18.6264 29.4941 19.049C28.549 19.5551 27.5271 19.9019 26.4693 20.0756C26.4298 20.0853 26.3898 20.0919 26.3493 20.0956C26.2161 20.119 26.0762 20.1423 25.9396 20.1556C25.2341 20.2488 24.5221 20.2845 23.8108 20.2623C23.285 20.2509 22.7606 20.2019 22.2418 20.1156C22.7719 19.0477 23.1294 17.9025 23.3011 16.7226C23.4713 15.6879 23.3808 14.6271 23.038 13.6362C22.8801 13.198 22.6369 12.7956 22.3224 12.4523C22.0078 12.109 21.6283 11.8317 21.2057 11.6363C20.3763 11.2296 19.4228 11.1556 18.5406 11.4297C17.4925 11.7542 16.5037 12.2461 15.6124 12.8862C14.4941 13.6671 13.427 14.5187 12.4176 15.436L10.1689 17.4358C9.50077 18.034 8.79654 18.5906 8.0602 19.1024C7.46818 19.5318 6.80506 19.8534 6.10136 20.0523C5.49684 20.2138 4.85433 20.1511 4.29243 19.8756C3.52887 19.5274 2.93126 18.8948 2.62676 18.1125C2.32036 17.2474 2.23224 16.32 2.37024 15.4127C2.51614 14.3572 2.83347 13.3327 3.30968 12.3796C3.69939 11.588 4.16935 10.8386 4.71218 10.1431C5.24434 9.44961 5.85593 8.82092 6.53443 8.26993C7.11978 7.77608 7.80003 7.40742 8.53324 7.18669C9.15877 6.99228 9.83508 7.04598 10.4221 7.33667L10.582 7.41L10.1023 6.26676H10.0657C9.41445 6.17182 8.74997 6.28866 8.17013 6.60007C7.46076 6.95252 6.80922 7.41108 6.23794 7.95996C5.58309 8.56586 4.99049 9.23581 4.469 9.95979C3.94542 10.6887 3.48194 11.4589 3.08315 12.2629C2.53145 13.3644 2.1592 14.547 1.98047 15.766C1.81194 16.7921 1.89773 17.8439 2.23032 18.8291C2.39005 19.2722 2.63639 19.679 2.95498 20.0258C3.27357 20.3726 3.65802 20.6524 4.08588 20.8489C4.9021 21.2439 5.83983 21.3061 6.701 21.0222C7.75476 20.6754 8.74168 20.1512 9.61927 19.4723C10.6387 18.7257 11.718 17.8425 12.814 16.8559L15.0394 14.9194C15.7063 14.328 16.4168 13.7876 17.1648 13.3028C17.7769 12.8963 18.4524 12.5944 19.1636 12.4096C19.7728 12.2559 20.4169 12.3257 20.9792 12.6062C21.7423 12.9534 22.3399 13.5848 22.6449 14.3661C22.9536 15.2271 23.0429 16.1516 22.9047 17.0559C22.7652 18.1004 22.4522 19.1143 21.9786 20.0556C21.9747 20.0702 21.9679 20.0838 21.9586 20.0956C21.9053 20.2056 21.852 20.3156 21.792 20.4289C21.4331 21.1023 21.0186 21.7445 20.5528 22.3488C20.2675 22.7199 19.9605 23.0739 19.6333 23.4087C19.6322 23.4009 19.6322 23.3931 19.6333 23.3854C19.1234 22.2653 18.4386 21.2336 17.6045 20.3289C16.9036 19.5497 16.0214 18.9556 15.0361 18.5991C14.1549 18.3045 13.1948 18.3557 12.35 18.7425C11.5052 19.1292 10.8387 19.8225 10.4854 20.6822C10.0797 21.6981 9.84125 22.7731 9.77918 23.8653C9.68225 25.2243 9.67446 26.5883 9.75586 27.9483C9.8025 28.9749 9.84913 29.9681 9.89577 30.9481C9.94307 31.8442 9.9364 32.7425 9.87578 33.6378C9.83801 34.3663 9.66989 35.082 9.37941 35.751C9.12583 36.3224 8.67198 36.7813 8.10351 37.0409C7.35417 37.412 6.48892 37.4731 5.69493 37.2109C4.82598 36.9071 4.04631 36.3917 3.42628 35.711C2.69478 34.9349 2.095 34.0443 1.65066 33.0746C1.2789 32.2763 0.989784 31.442 0.787841 30.5848C0.583587 29.7344 0.479609 28.8629 0.478028 27.9883C0.463917 27.2265 0.602098 26.4695 0.884453 25.7618C1.12813 25.1565 1.59423 24.6675 2.18701 24.3953L2.35025 24.3219L1.15096 23.972L1.13097 23.992C0.645915 24.4322 0.314383 25.0162 0.184867 25.6585C0.0167475 26.4297 -0.0371238 27.2214 0.0249681 28.0083C0.0927002 28.9015 0.248928 29.7858 0.491356 30.6481C0.730914 31.514 1.04065 32.359 1.41747 33.1745C1.92619 34.2942 2.61116 35.325 3.44627 36.2276C4.14397 37.0045 5.01962 37.6003 5.99809 37.9642C6.44237 38.1209 6.91349 38.1872 7.38375 38.1591C7.85401 38.1311 8.31393 38.0093 8.73646 37.8008C9.55577 37.4175 10.1938 36.7301 10.5154 35.8843C10.9109 34.8477 11.125 33.7506 11.1484 32.6413C11.2083 31.3814 11.195 29.9948 11.1184 28.5183C11.0784 27.5183 11.0418 26.5384 11.0018 25.5818C10.9623 24.6922 10.9902 23.8008 11.0851 22.9154C11.1525 22.1829 11.344 21.4672 11.6514 20.7989C11.9153 20.2293 12.3753 19.7738 12.9473 19.5157C13.6986 19.1481 14.5631 19.086 15.3592 19.3424C16.2227 19.6463 16.9983 20.158 17.6179 20.8322C18.3551 21.6158 18.9563 22.517 19.3968 23.4987C19.4168 23.532 19.4301 23.572 19.4501 23.6087C19.5067 23.732 19.5634 23.8586 19.6133 23.9886C19.8868 24.637 20.1096 25.3056 20.2796 25.9885C20.3896 26.4441 20.4719 26.9061 20.5261 27.3717H20.5028C19.3077 27.0608 18.0708 26.9416 16.8383 27.0184C15.7932 27.0728 14.7775 27.383 13.8801 27.9216C13.4819 28.1665 13.1362 28.4879 12.8629 28.8671C12.5896 29.2464 12.3941 29.6762 12.2877 30.1315C12.0656 31.0196 12.1907 31.959 12.6375 32.7579C13.1732 33.7146 13.8619 34.577 14.6763 35.311C15.6762 36.2397 16.7344 37.1036 17.8444 37.8975C18.6706 38.5074 19.4767 39.0974 20.2696 39.6773C20.9965 40.2036 21.6918 40.7723 22.3517 41.3805C22.8931 41.8688 23.3442 42.4487 23.6843 43.0937C23.9708 43.6483 24.0431 44.289 23.8875 44.8936C23.7007 45.7088 23.2035 46.4191 22.5016 46.8734C21.7158 47.3516 20.8247 47.6297 19.9065 47.6834C18.8397 47.7608 17.7674 47.664 16.7317 47.3967C15.8753 47.1841 15.0435 46.8825 14.2499 46.4968C13.4596 46.1213 12.7151 45.656 12.0312 45.1102C11.4295 44.6425 10.9277 44.0588 10.5554 43.3937C10.2338 42.8237 10.1443 42.1516 10.3055 41.5172L10.3488 41.3472L9.32611 42.0505V42.0905C9.36724 42.7448 9.61713 43.3687 10.039 43.8703C10.5334 44.4872 11.1173 45.0265 11.7713 45.4702C12.5085 45.9824 13.2953 46.419 14.1199 46.7734C14.9449 47.1346 15.7985 47.4267 16.6718 47.6467C17.3959 47.8307 18.1351 47.949 18.8804 48H20.3362C21.3781 47.9461 22.3916 47.642 23.2912 47.1134C24.0741 46.6219 24.6368 45.8466 24.8615 44.9496C25.0863 44.0526 24.9557 43.1034 24.4971 42.3005C23.9357 41.3437 23.2159 40.4894 22.3684 39.774C21.4223 38.9374 20.3362 38.0741 19.1336 37.2042C18.3274 36.6043 17.5412 36.0143 16.7717 35.4444C16.0551 34.9145 15.3781 34.333 14.7462 33.7045C14.2191 33.1914 13.7821 32.593 13.4537 31.9346C13.1764 31.3732 13.1114 30.7304 13.2704 30.1248C13.4542 29.31 13.9508 28.6001 14.6529 28.1483C15.433 27.6675 16.3201 27.3881 17.2347 27.335C18.3049 27.254 19.381 27.3509 20.4195 27.6217L20.5395 27.6517C20.6694 27.6817 20.806 27.7217 20.9392 27.7617C21.619 27.9649 22.2817 28.2212 22.9214 28.5283C23.3461 28.7238 23.7578 28.9465 24.154 29.1949C24.1469 29.1986 24.1411 29.2044 24.1373 29.2115C23.1429 29.9381 22.2722 30.8205 21.5588 31.8247C20.9409 32.6683 20.5415 33.652 20.3962 34.6878C20.337 35.1509 20.3701 35.6211 20.4936 36.0714C20.6171 36.5216 20.8286 36.9429 21.1158 37.3109C21.6682 38.0422 22.4782 38.5356 23.3811 38.6908C24.4639 38.8777 25.5698 38.8879 26.6558 38.7208C28.0046 38.5305 29.3398 38.2545 30.6534 37.8942L33.5651 37.1376C34.4339 36.9035 35.3161 36.722 36.2068 36.5943C36.9288 36.4799 37.6653 36.4946 38.3822 36.6376C38.9961 36.7647 39.5423 37.112 39.9179 37.6142C40.4344 38.2681 40.6737 39.0987 40.5842 39.9273C40.4651 40.8382 40.1217 41.7052 39.5848 42.4505C38.9748 43.3266 38.2253 44.0968 37.3661 44.7303C36.6588 45.2597 35.8986 45.7143 35.0975 46.0868C34.3082 46.4646 33.4775 46.7487 32.6223 46.9334C31.8781 47.1075 31.1064 47.129 30.3536 46.9967C29.7067 46.8833 29.1283 46.5253 28.7379 45.9968L28.6313 45.8568L28.5347 47.0934L28.568 47.1134C29.1019 47.4982 29.7457 47.7004 30.4036 47.69C31.1928 47.69 31.9779 47.5778 32.7355 47.3567C33.5955 47.1051 34.429 46.7702 35.2241 46.3568C36.0263 45.9477 36.792 45.4704 37.5127 44.9302C38.5062 44.2037 39.3757 43.3213 40.0878 42.3171C40.7046 41.4768 41.1071 40.4986 41.2605 39.4674C41.3723 38.5481 41.1244 37.6212 40.5687 36.8806C40.0129 36.1401 39.1924 35.6433 38.2789 35.4944C37.1799 35.3248 36.0601 35.344 34.9676 35.551C33.7216 35.7543 32.3624 36.0576 30.93 36.4409L28.0683 37.1576C27.2056 37.3833 26.3269 37.5427 25.4399 37.6342C24.7095 37.7218 23.9696 37.6857 23.2512 37.5275C22.6376 37.3875 22.0942 37.0329 21.7188 36.5276C21.201 35.8744 20.9615 35.0432 21.0525 34.2145C21.1708 33.3054 21.5143 32.4404 22.0519 31.698C22.663 30.8186 23.4148 30.0461 24.2772 29.4115L24.3772 29.3415C24.4871 29.2549 24.6004 29.1782 24.7103 29.1015C25.2966 28.7011 25.9137 28.3478 26.5559 28.045C26.9792 27.8427 27.4142 27.6658 27.8584 27.515V27.5417C27.8033 28.7704 27.9438 30.0001 28.2749 31.1847C28.5469 32.1943 29.0628 33.1214 29.7773 33.8845C30.4328 34.5652 31.3312 34.9583 32.2758 34.9777C33.1931 35.0112 34.0887 34.6942 34.781 34.0911C35.6055 33.3695 36.3085 32.5198 36.8631 31.5747C37.5651 30.405 38.1937 29.1927 38.7453 27.945C39.1651 27.0139 39.5781 26.1029 39.9846 25.2119C40.3489 24.3925 40.7616 23.5956 41.2205 22.8254C41.5875 22.1925 42.0621 21.6285 42.623 21.1589C43.1094 20.7646 43.7232 20.5619 44.3486 20.5889C45.1846 20.5998 45.9831 20.9371 46.574 21.5288C47.21 22.1917 47.6683 23.0046 47.9065 23.892C48.2032 24.9143 48.3315 25.9781 48.2863 27.0417C48.2549 27.9233 48.1309 28.7992 47.9165 29.6548C47.7142 30.503 47.4123 31.3242 47.0171 32.1013C46.685 32.7882 46.2169 33.4006 45.6412 33.9012C45.1493 34.3334 44.5097 34.559 43.8556 34.5311H43.6924L44.5952 35.381H44.6318C45.2676 35.2089 45.8315 34.8374 46.2409 34.3211C46.7391 33.7066 47.1454 33.0228 47.4468 32.2913C47.7943 31.4672 48.0599 30.611 48.2397 29.7348C48.4246 28.8568 48.536 27.9649 48.5728 27.0684C48.628 25.837 48.4852 24.6047 48.1497 23.4187ZM26.4193 27.785C25.7465 28.1316 25.0986 28.5248 24.4804 28.9616C24.0133 28.693 23.5318 28.4505 23.038 28.235C22.3437 27.9311 21.629 27.676 20.8992 27.4717C20.8177 26.9404 20.7065 26.414 20.5661 25.8951C20.3697 25.1657 20.1203 24.4517 19.8199 23.7587C20.176 23.3574 20.5096 22.9368 20.8193 22.4988C21.2922 21.8485 21.7133 21.162 22.0785 20.4456C22.6612 20.5139 23.2476 20.5451 23.8342 20.5389C24.5934 20.5341 25.3514 20.4773 26.1028 20.3689C26.3959 20.8216 26.7152 21.2567 27.0589 21.6722C27.5381 22.2632 28.0579 22.8201 28.6147 23.3387C28.4488 23.8508 28.3109 24.3715 28.2016 24.8986C28.048 25.6371 27.9467 26.3856 27.8984 27.1384C27.3937 27.3261 26.8999 27.542 26.4193 27.785Z" fill="white"/>
<path d="M76.1527 23.8344C75.2525 23.1055 74.2635 22.4939 73.2093 22.0142C72.1084 21.504 70.9827 21.0373 69.8321 20.6141C68.6814 20.191 67.5526 19.8098 66.4455 19.4707C65.4415 19.1573 64.4598 18.7769 63.5067 18.3319C62.7535 17.9937 62.0566 17.542 61.4403 16.9925C61.1924 16.7739 60.9945 16.5044 60.86 16.2024C60.7256 15.9004 60.6578 15.5729 60.6613 15.2423C60.6346 14.4639 60.8409 13.6952 61.2537 13.0348C61.6509 12.4391 62.1958 11.9567 62.835 11.6346C63.5387 11.2792 64.2946 11.0381 65.0741 10.9206C65.9193 10.7837 66.7741 10.715 67.6303 10.7152C68.6331 10.701 69.6343 10.7981 70.6157 11.0046C71.3505 11.161 72.0601 11.4186 72.7242 11.77C73.2386 12.0499 73.7035 12.4126 74.1003 12.8434C74.4397 13.2153 74.7226 13.6352 74.9399 14.0895C75.1267 14.448 75.2918 14.8174 75.4344 15.1956C75.565 15.566 75.729 15.9237 75.9242 16.2644H76.6192L76.4839 12.2507L76.316 12.5587C76.3519 12.4363 76.4087 12.3211 76.4839 12.218C75.9171 11.9152 75.3294 11.6532 74.7253 11.434C74.0203 11.1769 73.3007 10.9618 72.5702 10.7899C71.7804 10.6086 70.9816 10.4684 70.1773 10.3699C69.3619 10.2663 68.5409 10.2134 67.719 10.2112C66.6834 10.2098 65.6504 10.313 64.6356 10.5192C63.6844 10.7046 62.7683 11.0385 61.9207 11.5086C61.137 11.946 60.4699 12.5655 59.9756 13.3148C59.4682 14.1413 59.2151 15.099 59.2479 16.0684C59.2255 16.8602 59.4982 17.632 60.0129 18.2339C60.6072 18.8987 61.3168 19.4505 62.1073 19.8627C63.0593 20.3791 64.0478 20.8252 65.0648 21.1975C66.161 21.6035 67.2805 22.0142 68.4233 22.4203C69.5662 22.8263 70.695 23.2697 71.7912 23.7457C72.8334 24.1868 73.825 24.7392 74.7487 25.3932C75.5806 25.9704 76.292 26.7044 76.8431 27.5541C77.3795 28.4203 77.6518 29.4243 77.6268 30.443C77.6254 31.331 77.4043 32.2049 76.983 32.9865C76.5381 33.8247 75.94 34.5719 75.2198 35.1894C74.4452 35.8495 73.5632 36.372 72.6122 36.7342C71.6226 37.1221 70.5684 37.3185 69.5055 37.3129C68.6892 37.3129 67.8962 37.2849 67.1219 37.2289C66.3475 37.1729 65.5685 37.0842 64.7895 36.9722C63.6334 36.7155 62.5455 36.2142 61.5989 35.5021C60.6489 34.8058 59.8835 33.8877 59.3691 32.8279L58.8654 31.8104H58.1843L58.3149 35.7915C58.9638 36.142 59.6468 36.4251 60.3534 36.6362C61.2251 36.9036 62.1133 37.114 63.0123 37.2663C63.9825 37.4343 65.0181 37.565 66.119 37.6583C67.2245 37.747 68.3487 37.789 69.5055 37.789C70.7719 37.7986 72.0281 37.5624 73.2046 37.0936C74.3171 36.6544 75.3435 36.0224 76.2367 35.2268C77.0684 34.4816 77.7576 33.5913 78.2705 32.5992C78.7566 31.6784 79.0127 30.6536 79.0169 29.6123C79.0472 28.448 78.7773 27.2955 78.2332 26.2659C77.7019 25.3295 76.9956 24.504 76.1527 23.8344Z" fill="white"/>
<path d="M101.3 34.0086C100.683 34.9719 99.822 35.7545 98.8045 36.2768C97.7824 36.8224 96.6417 37.1077 95.4833 37.1075H85.5241V21.7388H94.0185C94.9045 21.7135 95.7838 21.8991 96.5841 22.2802C97.2135 22.5632 97.7132 23.0731 97.9835 23.7083L98.1235 24.0444H98.6646V19.2139H98.1375L97.9975 19.522C97.8723 19.8147 97.686 20.0774 97.4511 20.2923C97.2162 20.5072 96.9381 20.6694 96.6354 20.7681C95.8033 21.0977 94.9133 21.2564 94.0185 21.2348H85.5241V10.9205H95.1754C96.2966 10.9103 97.4006 11.1969 98.3754 11.7513C99.3097 12.2633 100.059 13.057 100.516 14.0195L100.75 14.5982H101.291C101.291 13.9308 101.235 13.2354 101.188 12.498C101.142 11.7606 101.123 11.0605 101.123 10.4071H81.4379V11.0512H81.7457C81.9936 11.048 82.2383 11.1069 82.4575 11.2227C82.6767 11.3385 82.8634 11.5074 83.0005 11.7139C83.3412 12.2453 83.5045 12.8712 83.467 13.5014V34.5033C83.5288 35.1709 83.3373 35.8373 82.9306 36.3701C82.7353 36.57 82.4991 36.7252 82.2382 36.8251C81.9773 36.925 81.6979 36.9672 81.4192 36.9488V37.5929H101.342C101.365 37.5042 101.459 37.0702 101.617 36.3001L102.191 33.4485H101.687L101.3 34.0086Z" fill="white"/>
<path d="M125.717 10.3955V11.0395H126.123C126.343 11.0265 126.563 11.0574 126.77 11.1303C126.977 11.2032 127.168 11.3167 127.331 11.4642C127.482 11.6257 127.597 11.8162 127.671 12.0241C127.745 12.232 127.775 12.4529 127.761 12.673C127.747 13.1374 127.641 13.5945 127.448 14.0171L118.776 35.173L109.447 13.4664C109.28 13.1043 109.186 12.7124 109.172 12.3136C109.165 12.1401 109.195 11.9671 109.26 11.8062C109.325 11.6453 109.424 11.5 109.55 11.3802C109.846 11.1417 110.22 11.0219 110.599 11.0442H111.01V10.4001H104.591V11.0442C104.892 11.0362 105.192 11.0887 105.472 11.1985C105.753 11.3083 106.008 11.4732 106.224 11.6836C106.726 12.1919 107.122 12.7946 107.39 13.4571L117.787 37.6046H118.399L128.395 13.2844C128.647 12.6387 129.04 12.058 129.547 11.5856C129.998 11.2184 130.566 11.0262 131.147 11.0442V10.4001H125.717V10.3955Z" fill="white"/>
<path d="M159.768 18.7049C159.218 17.0816 158.343 15.5874 157.197 14.3132C156.022 13.0206 154.58 11.9984 152.971 11.3169C151.114 10.5464 149.118 10.1698 147.108 10.2109C145.086 10.1704 143.077 10.5469 141.207 11.3169C139.596 11.9994 138.151 13.0214 136.971 14.3132C135.83 15.589 134.959 17.083 134.41 18.7049C133.827 20.4032 133.536 22.1878 133.547 23.9834C133.538 25.7895 133.83 27.5845 134.41 29.2945C134.959 30.9207 135.83 32.4193 136.971 33.7003C138.153 34.9877 139.598 36.0063 141.207 36.6872C143.077 37.4569 145.086 37.8319 147.108 37.7886C149.118 37.8333 151.115 37.4581 152.971 36.6872C154.578 36.0073 156.02 34.9885 157.197 33.7003C158.344 32.421 159.218 30.9221 159.768 29.2945C160.35 27.5848 160.644 25.7898 160.635 23.9834C160.646 22.1876 160.352 20.4029 159.768 18.7049ZM157.613 29.0892C157.174 30.6231 156.451 32.0607 155.481 33.3269C154.544 34.5348 153.35 35.5199 151.987 36.2112C150.47 36.9541 148.797 37.3222 147.108 37.2846C145.413 37.3201 143.734 36.9522 142.21 36.2112C140.835 35.5207 139.63 34.536 138.679 33.3269C137.707 32.061 136.982 30.6234 136.542 29.0892C136.058 27.4309 135.818 25.711 135.829 23.9834C135.816 22.2664 136.056 20.557 136.542 18.9103C136.981 17.38 137.706 15.9468 138.679 14.6866C139.628 13.4735 140.834 12.4854 142.21 11.793C143.735 11.0531 145.413 10.6853 147.108 10.7196C148.796 10.6825 150.47 11.0506 151.987 11.793C153.352 12.4862 154.545 13.4746 155.481 14.6866C156.452 15.9472 157.175 17.3803 157.613 18.9103C158.105 20.5561 158.352 22.2655 158.345 23.9834C158.349 25.7118 158.103 27.4318 157.613 29.0892Z" fill="white"/>
<path d="M185.678 37.2126C185.415 37.2052 185.157 37.1399 184.922 37.0212C184.45 36.7413 184.021 36.3939 183.649 35.9898C183.075 35.4251 182.249 34.5617 181.242 33.4089C180.234 32.2561 178.83 30.6367 177.109 28.5785C178.161 28.3286 179.169 27.9211 180.099 27.3697C180.962 26.8543 181.733 26.1981 182.38 25.4282C183.017 24.6607 183.512 23.785 183.84 22.8427C184.185 21.8286 184.355 20.7634 184.344 19.6924C184.359 18.4022 184.141 17.1199 183.7 15.9074C183.304 14.8158 182.692 13.8156 181.899 12.9671C181.112 12.1396 180.158 11.4889 179.101 11.0583C177.955 10.5984 176.729 10.3685 175.495 10.3815H163.035V10.9929H163.343C163.598 10.9861 163.851 11.0453 164.076 11.1646C164.302 11.284 164.493 11.4596 164.631 11.6743C164.972 12.2089 165.135 12.8379 165.097 13.4711V34.473C165.132 35.0956 164.969 35.7134 164.631 36.2372C164.492 36.451 164.301 36.6258 164.075 36.745C163.85 36.8643 163.598 36.924 163.343 36.9186H163.035V37.5626H169.351V36.9186H169.006C168.756 36.9206 168.51 36.8592 168.291 36.74C168.071 36.6208 167.886 36.4478 167.751 36.2372C167.417 35.7116 167.254 35.0952 167.285 34.473V28.9472H174.445C174.601 28.9493 174.757 28.9384 174.912 28.9145L177.818 32.2935C178.625 33.2269 179.32 34.0296 179.894 34.6784C180.467 35.3271 180.966 35.8405 181.372 36.2278C181.715 36.5592 182.09 36.8548 182.492 37.1099C182.801 37.3001 183.14 37.4373 183.495 37.5159C183.857 37.5886 184.226 37.623 184.596 37.6186H185.794V37.2126H185.678ZM173.881 28.4385H167.252V10.8903H175.509C176.444 10.8807 177.367 11.1019 178.196 11.5343C179.021 11.9709 179.737 12.5883 180.29 13.3405C180.897 14.1777 181.351 15.1164 181.629 16.1127C181.955 17.2774 182.112 18.4829 182.095 19.6924C182.11 20.9036 181.909 22.1077 181.503 23.2487C181.136 24.2767 180.565 25.2198 179.824 26.0209C179.091 26.7965 178.202 27.4073 177.216 27.8131C176.157 28.2408 175.023 28.4534 173.881 28.4385Z" fill="white"/>
<path d="M213.109 36.3444C212.604 35.8328 212.205 35.2271 211.933 34.5616L201.522 10.3815H200.915L195.458 23.7433L195.248 24.252L190.952 34.7343C190.695 35.377 190.3 35.9554 189.795 36.4284C189.344 36.7958 188.776 36.9895 188.195 36.9745V37.6185H193.592V36.9745H193.191C192.969 36.9906 192.747 36.9594 192.539 36.883C192.331 36.8066 192.141 36.6866 191.983 36.5311C191.835 36.3655 191.721 36.1722 191.648 35.9623C191.575 35.7524 191.545 35.5301 191.558 35.3083C191.559 35.1161 191.574 34.9241 191.605 34.7343C191.673 34.4486 191.765 34.1691 191.88 33.8989C192.006 33.5722 192.183 33.1335 192.412 32.5781L192.64 32.004C192.911 31.346 193.261 30.5013 193.694 29.4605L193.965 28.8118L195.831 24.252H205.445L207.679 29.4465L208.78 32.004L209.018 32.5781L209.163 32.9281C209.303 33.2735 209.433 33.5675 209.545 33.8149C209.657 34.0622 209.806 34.3983 209.886 34.6083C209.952 34.7933 210.008 34.9818 210.054 35.173C210.086 35.3265 210.103 35.4828 210.105 35.6397C210.114 35.8179 210.085 35.996 210.021 36.1624C209.957 36.3288 209.858 36.4799 209.732 36.6058C209.441 36.8589 209.062 36.9879 208.678 36.9652H208.272V37.6092H214.583V36.9558C214.033 36.9423 213.507 36.7243 213.109 36.3444ZM196.069 23.7433L200.547 12.827L205.254 23.7433H196.069Z" fill="white"/>
</svg>
